<mxfile host="app.diagrams.net" modified="2020-12-14T08:58:51.243Z" agent="5.0 (Windows)" etag="Y6wDxSr0JZJpKaWe_5ot" version="14.0.0" type="github">
  <diagram id="OvEPDo06AWxCtlv7Htj_" name="Page-1">
    <mxGraphModel dx="1038" dy="547" grid="1" gridSize="10" guides="1" tooltips="1" connect="1" arrows="1" fold="1" page="1" pageScale="1" pageWidth="1169" pageHeight="827" math="0" shadow="0">
      <root>
        <mxCell id="0" />
        <mxCell id="1" parent="0" />
        <mxCell id="EHX_ExxeSJnJYutKTGt3-1" value="Procurement Planning" style="swimlane;html=1;childLayout=stackLayout;resizeParent=1;resizeParentMax=0;horizontal=1;startSize=20;horizontalStack=0;" vertex="1" parent="1">
          <mxGeometry x="10" y="10" width="1150" height="660" as="geometry" />
        </mxCell>
        <mxCell id="EHX_ExxeSJnJYutKTGt3-2" value="HSCM" style="swimlane;html=1;startSize=20;horizontal=0;" vertex="1" parent="EHX_ExxeSJnJYutKTGt3-1">
          <mxGeometry y="20" width="1150" height="270" as="geometry" />
        </mxCell>
        <mxCell id="EHX_ExxeSJnJYutKTGt3-5" value="Start" style="rounded=1;whiteSpace=wrap;html=1;" vertex="1" parent="EHX_ExxeSJnJYutKTGt3-2">
          <mxGeometry x="190" y="20" width="90" height="50" as="geometry" />
        </mxCell>
        <mxCell id="EHX_ExxeSJnJYutKTGt3-8" value="Prepare memo for various divisions to submit their annual divisional" style="rounded=0;whiteSpace=wrap;html=1;" vertex="1" parent="EHX_ExxeSJnJYutKTGt3-2">
          <mxGeometry x="175" y="160" width="120" height="60" as="geometry" />
        </mxCell>
        <mxCell id="EHX_ExxeSJnJYutKTGt3-7" value="" style="edgeStyle=orthogonalEdgeStyle;rounded=0;orthogonalLoop=1;jettySize=auto;html=1;entryX=0.5;entryY=0;entryDx=0;entryDy=0;" edge="1" parent="EHX_ExxeSJnJYutKTGt3-2" source="EHX_ExxeSJnJYutKTGt3-5" target="EHX_ExxeSJnJYutKTGt3-8">
          <mxGeometry relative="1" as="geometry">
            <mxPoint x="235" y="145" as="targetPoint" />
          </mxGeometry>
        </mxCell>
        <mxCell id="EHX_ExxeSJnJYutKTGt3-15" value="Receive and consolidate cost centre plans into divisional procurement plans" style="whiteSpace=wrap;html=1;rounded=0;" vertex="1" parent="EHX_ExxeSJnJYutKTGt3-2">
          <mxGeometry x="340" y="150" width="150" height="80" as="geometry" />
        </mxCell>
        <mxCell id="EHX_ExxeSJnJYutKTGt3-3" value="CEO" style="swimlane;html=1;startSize=20;horizontal=0;" vertex="1" parent="EHX_ExxeSJnJYutKTGt3-1">
          <mxGeometry y="290" width="1150" height="180" as="geometry" />
        </mxCell>
        <mxCell id="EHX_ExxeSJnJYutKTGt3-9" value="Memo Approved?" style="rhombus;whiteSpace=wrap;html=1;rounded=0;" vertex="1" parent="EHX_ExxeSJnJYutKTGt3-3">
          <mxGeometry x="195" y="60" width="80" height="80" as="geometry" />
        </mxCell>
        <mxCell id="EHX_ExxeSJnJYutKTGt3-17" value="yes" style="text;html=1;strokeColor=none;fillColor=none;align=center;verticalAlign=middle;whiteSpace=wrap;rounded=0;" vertex="1" parent="EHX_ExxeSJnJYutKTGt3-3">
          <mxGeometry x="240" y="150" width="40" height="20" as="geometry" />
        </mxCell>
        <mxCell id="EHX_ExxeSJnJYutKTGt3-18" value="no" style="text;html=1;strokeColor=none;fillColor=none;align=center;verticalAlign=middle;whiteSpace=wrap;rounded=0;" vertex="1" parent="EHX_ExxeSJnJYutKTGt3-3">
          <mxGeometry x="120" y="80" width="40" height="20" as="geometry" />
        </mxCell>
        <mxCell id="EHX_ExxeSJnJYutKTGt3-4" value="Cost Centre Head" style="swimlane;html=1;startSize=20;horizontal=0;" vertex="1" parent="EHX_ExxeSJnJYutKTGt3-1">
          <mxGeometry y="470" width="1150" height="190" as="geometry" />
        </mxCell>
        <mxCell id="EHX_ExxeSJnJYutKTGt3-11" value="Preparation of cost centre procurement plans in line with budget" style="whiteSpace=wrap;html=1;rounded=0;" vertex="1" parent="EHX_ExxeSJnJYutKTGt3-4">
          <mxGeometry x="175" y="50" width="120" height="60" as="geometry" />
        </mxCell>
        <mxCell id="EHX_ExxeSJnJYutKTGt3-10" value="" style="edgeStyle=orthogonalEdgeStyle;rounded=0;orthogonalLoop=1;jettySize=auto;html=1;" edge="1" parent="EHX_ExxeSJnJYutKTGt3-1" source="EHX_ExxeSJnJYutKTGt3-8" target="EHX_ExxeSJnJYutKTGt3-9">
          <mxGeometry relative="1" as="geometry" />
        </mxCell>
        <mxCell id="EHX_ExxeSJnJYutKTGt3-12" value="" style="edgeStyle=orthogonalEdgeStyle;rounded=0;orthogonalLoop=1;jettySize=auto;html=1;" edge="1" parent="EHX_ExxeSJnJYutKTGt3-1" source="EHX_ExxeSJnJYutKTGt3-9" target="EHX_ExxeSJnJYutKTGt3-11">
          <mxGeometry relative="1" as="geometry" />
        </mxCell>
        <mxCell id="EHX_ExxeSJnJYutKTGt3-16" value="" style="edgeStyle=orthogonalEdgeStyle;rounded=0;orthogonalLoop=1;jettySize=auto;html=1;" edge="1" parent="EHX_ExxeSJnJYutKTGt3-1" source="EHX_ExxeSJnJYutKTGt3-11" target="EHX_ExxeSJnJYutKTGt3-15">
          <mxGeometry relative="1" as="geometry" />
        </mxCell>
        <mxCell id="EHX_ExxeSJnJYutKTGt3-20" value="" style="edgeStyle=orthogonalEdgeStyle;rounded=0;orthogonalLoop=1;jettySize=auto;html=1;entryX=0;entryY=0.5;entryDx=0;entryDy=0;" edge="1" parent="EHX_ExxeSJnJYutKTGt3-1" source="EHX_ExxeSJnJYutKTGt3-9" target="EHX_ExxeSJnJYutKTGt3-8">
          <mxGeometry relative="1" as="geometry">
            <mxPoint x="135" y="390" as="targetPoint" />
            <Array as="points">
              <mxPoint x="90" y="390" />
              <mxPoint x="90" y="210" />
            </Array>
          </mxGeometry>
        </mxCell>
      </root>
    </mxGraphModel>
  </diagram>
</mxfile>
